<svg width="402" height="68" viewBox="0 0 402 68" fill="none" xmlns="http://www.w3.org/2000/svg">
<path d="M7.66947 67L0.323975 0.599976H7.12997L11.114 37.5765L12.691 61.024H16.0525L17.6295 37.5765L21.6135 0.599976H28.5025L21.074 67H7.66947Z" fill="white"/>
<path d="M31.0003 67L38.1383 0.599976H51.7088L58.8053 67H52.0823L50.3808 48.242H39.4248L37.7648 67H31.0003ZM40.0058 42.3075H49.8413L48.5548 28.239L46.7288 6.53448H43.1598L41.2923 28.2805L40.0058 42.3075Z" fill="white"/>
<path d="M78.2415 67.581C73.7319 67.581 70.4949 66.6956 68.5305 64.925C66.5939 63.1543 65.584 60.277 65.501 56.293C65.3904 46.9416 65.335 37.6595 65.335 28.4465C65.335 19.2335 65.3904 9.95131 65.501 0.599976H72.0995C72.0442 6.82497 72.0027 13.0638 71.975 19.3165C71.9474 25.5691 71.9474 31.8218 71.975 38.0745C72.0027 44.3271 72.0165 50.566 72.0165 56.791C72.0165 58.617 72.473 59.9173 73.386 60.692C74.3267 61.439 75.9452 61.8125 78.2415 61.8125C80.5102 61.8125 82.101 61.439 83.014 60.692C83.927 59.9173 84.3835 58.617 84.3835 56.791C84.4112 50.566 84.4389 44.3271 84.4665 38.0745C84.4942 31.8218 84.508 25.5691 84.508 19.3165C84.508 13.0638 84.4665 6.82497 84.3835 0.599976H90.9405C91.0512 9.95131 91.1065 19.2335 91.1065 28.4465C91.1342 37.6595 91.0789 46.9416 90.9405 56.293C90.9129 60.277 89.903 63.1543 87.911 64.925C85.9467 66.6956 82.7235 67.581 78.2415 67.581Z" fill="white"/>
<path d="M100.368 67V0.599976H106.967V61.0655H122.363V67H100.368Z" fill="white"/>
<path d="M130.937 67V6.53448H120.811V0.599976H147.579V6.53448H137.494V67H130.937Z" fill="white"/>
<path d="M159.088 67.364C156.263 67.364 154.226 66.792 152.978 65.648C151.73 64.4866 151.089 62.5886 151.054 59.954C151.02 57.3193 150.994 54.884 150.976 52.648C150.959 50.3946 150.95 48.2106 150.95 46.096C150.95 43.964 150.959 41.7973 150.976 39.596C150.994 37.3773 151.02 35.0026 151.054 32.472C151.089 29.82 151.73 27.922 152.978 26.778C154.226 25.6166 156.263 25.036 159.088 25.036C161.896 25.036 163.916 25.6166 165.146 26.778C166.394 27.922 167.044 29.82 167.096 32.472C167.166 35.0026 167.209 37.3773 167.226 39.596C167.261 41.7973 167.278 43.964 167.278 46.096C167.278 48.2106 167.261 50.3946 167.226 52.648C167.209 54.884 167.166 57.3193 167.096 59.954C167.044 62.5886 166.394 64.4866 165.146 65.648C163.916 66.792 161.896 67.364 159.088 67.364ZM159.088 63.802C160.544 63.802 161.55 63.542 162.104 63.022C162.676 62.4846 162.971 61.5053 162.988 60.084C163.058 57.4146 163.11 54.962 163.144 52.726C163.179 50.49 163.196 48.3233 163.196 46.226C163.196 44.1286 163.179 41.962 163.144 39.726C163.11 37.4726 163.058 35.0026 162.988 32.316C162.971 30.8946 162.676 29.9153 162.104 29.378C161.55 28.8406 160.544 28.572 159.088 28.572C157.632 28.572 156.618 28.8406 156.046 29.378C155.492 29.9153 155.197 30.8946 155.162 32.316C155.093 34.9333 155.041 37.3513 155.006 39.57C154.989 41.7886 154.98 43.9466 154.98 46.044C154.98 48.1413 154.989 50.3253 155.006 52.596C155.041 54.8493 155.093 57.3453 155.162 60.084C155.197 61.5053 155.492 62.4846 156.046 63.022C156.618 63.542 157.632 63.802 159.088 63.802Z" fill="white"/>
<path d="M173.176 67V25.4H187.32V29.118H177.31V44.224H186.8V47.942H177.31V67H173.176Z" fill="white"/>
<path d="M198.068 67V0.599976H212.302L216.245 27.7825L218.859 60.775H221.142L223.715 27.7825L227.699 0.599976H241.85V67H235.169V46.25L235.999 6.53448H232.471L228.197 47.9515L224.96 66.7095H214.834L211.804 47.9515L207.488 6.53448H204.002L204.832 46.25V67H198.068Z" fill="white"/>
<path d="M249.147 67L256.285 0.599976H269.856L276.952 67H270.229L268.528 48.242H257.572L255.912 67H249.147ZM258.153 42.3075H267.988L266.702 28.239L264.876 6.53448H261.307L259.439 28.2805L258.153 42.3075Z" fill="white"/>
<path d="M284.229 67V0.599976H296.72C300.87 0.599976 303.886 1.42997 305.767 3.08997C307.649 4.74997 308.645 7.50281 308.755 11.3485C308.866 13.9491 308.935 16.3285 308.963 18.4865C308.991 20.6445 308.991 22.7195 308.963 24.7115C308.935 26.6758 308.866 28.737 308.755 30.895C308.645 33.468 308.147 35.543 307.261 37.12C306.404 38.6693 305.076 39.8036 303.277 40.523L310.042 67H303.111L297.011 41.602H290.827V67H284.229ZM290.827 35.6675H296.679C298.671 35.6675 300.068 35.3355 300.87 34.6715C301.673 33.9798 302.115 32.804 302.198 31.144C302.281 28.6263 302.337 26.33 302.364 24.255C302.392 22.1523 302.392 20.0635 302.364 17.9885C302.364 15.8858 302.309 13.5895 302.198 11.0995C302.115 9.41181 301.673 8.23597 300.87 7.57198C300.068 6.88031 298.685 6.53448 296.72 6.53448H290.827V35.6675Z" fill="white"/>
<path d="M322.434 67L315.088 0.599976H321.894L325.878 37.5765L327.455 61.024H330.817L332.394 37.5765L336.378 0.599976H343.267L335.838 67H322.434Z" fill="white"/>
<path d="M350.613 67V0.599976H372.649V6.53448H357.211V30.646H371.819V36.5805H357.211V61.0655H372.649V67H350.613Z" fill="white"/>
<path d="M379.955 67V0.599976H386.553V61.0655H401.95V67H379.955Z" fill="white"/>
</svg>
