<svg width="80" height="80" viewBox="0 0 80 80" fill="none" xmlns="http://www.w3.org/2000/svg">
<rect width="80" height="80" rx="40" fill="#ED1D24"/>
<g clip-path="url(#clip0_21_2)">
<path d="M59 33.8695V51.0203C58.9861 51.0398 58.9643 51.0584 58.9594 51.0798C58.4557 53.0591 57.2322 54 55.156 54H24.8411C24.7181 54 24.5942 54 24.4702 54C22.4773 53.9279 21.006 52.4536 21 50.4938C20.996 45.0453 20.996 39.5962 21 34.1464C21.005 34.053 21.0149 33.9599 21.0298 33.8676C21.0962 33.9036 21.1289 33.9192 21.1606 33.9387L36.5575 44.0381C38.8598 45.5475 41.1392 45.5504 43.4435 44.0381C48.0308 41.0331 52.6174 38.027 57.2034 35.02C57.7983 34.6291 58.4012 34.2517 59 33.8695Z" fill="white"/>
<path d="M59.0004 29.9284C58.8596 30.2999 58.7843 30.7172 58.5612 31.0341C58.2568 31.4651 57.8999 31.9048 57.4646 32.1924C52.3088 35.605 47.1379 38.9988 41.9517 42.3737C40.6737 43.2064 39.3242 43.2035 38.0472 42.3737C32.8551 38.9878 27.6712 35.5898 22.4956 32.1798C21.2523 31.3627 20.7377 29.9469 21.1333 28.5351C21.5368 27.093 22.794 26.1082 24.3596 26.0078C24.4707 26 24.5817 26 24.6928 26C34.8972 26 45.1017 26 55.3061 26C56.9917 26 58.3163 26.8902 58.816 28.3567C58.8854 28.5614 58.94 28.771 59.0004 28.9797V29.9284Z" fill="white"/>
</g>
<defs>
<clipPath id="clip0_21_2">
<rect width="38" height="28" fill="white" transform="translate(21 26)"/>
</clipPath>
</defs>
</svg>
