<svg width="80" height="80" viewBox="0 0 80 80" fill="none" xmlns="http://www.w3.org/2000/svg">
<rect width="80" height="80" rx="40" fill="#ED1D24"/>
<g clip-path="url(#clip0_21_3)">
<path d="M21 30.5464C21.1124 30.2181 21.2455 29.8974 21.3984 29.5861C22.4648 27.6421 23.8165 25.8993 25.3162 24.2815C26.2121 23.3341 27.1613 22.4386 28.1591 21.5996C29.5097 20.4349 30.8731 21.156 31.5664 22.1078C33.3366 24.543 34.9905 27.0534 36.2524 29.7999C36.4306 30.2093 36.5831 30.6294 36.709 31.0578C36.9425 31.7989 36.803 32.4977 36.2788 33.0504C35.6733 33.6857 35.0106 34.2765 34.3448 34.8578C33.4634 35.6296 33.4412 35.6233 33.8957 36.6884C35.872 41.3196 39.2021 44.5507 43.886 46.3817C44.2887 46.5394 44.5318 46.5129 44.815 46.1551C45.3804 45.4425 45.9923 44.767 46.6116 44.0968C47.3937 43.2498 48.3576 42.9851 49.4102 43.471C50.7577 44.0926 52.1062 44.7342 53.3808 45.4912C54.8963 46.3922 56.3399 47.4172 57.8026 48.4061C58.405 48.8126 58.7643 49.4003 58.9451 50.1086C59.0019 50.2989 59.0187 50.499 58.9946 50.6962C58.9704 50.8933 58.9056 51.0833 58.8045 51.2542C58.5611 51.6918 58.2807 52.1077 57.9664 52.4972C55.8802 54.8965 53.4167 56.8383 50.7418 58.545C49.8054 59.1411 48.8754 59.0363 47.8947 58.8426C44.4705 58.1639 41.3686 56.7123 38.4655 54.8245C32.4552 50.9196 27.6169 45.8808 24.0807 39.6245C22.7575 37.2824 21.7556 34.808 21.2452 32.1494C21.1522 31.657 21.093 31.1637 21 30.5464Z" fill="white"/>
</g>
<defs>
<clipPath id="clip0_21_3">
<rect width="38" height="38" fill="white" transform="translate(21 21)"/>
</clipPath>
</defs>
</svg>
